# Blender v3.0.0 OBJ File: 'lemming_model.blend'
# www.blender.org
o Plane_Plane.001
v 0.427165 -0.017440 -0.073126
v -0.019634 -0.011466 -0.041780
v -1.276859 -0.017440 -0.055936
v -1.235368 1.968514 -0.060582
v -0.053762 1.962930 -0.055158
v 1.286994 1.982559 -0.055936
v 1.651464 1.744084 -0.055936
v -0.227439 1.832059 -0.055936
v -0.478797 1.712664 -0.055936
v -0.792995 1.901183 -0.055936
v -1.597624 1.887114 -0.058226
v -1.798943 1.749032 -0.054199
v -1.861267 1.580701 -0.055936
v -2.188033 1.367047 -0.055936
v -2.250873 0.814059 -0.055936
v -2.043502 0.543848 -0.055936
v -1.729305 0.543848 -0.055936
v -1.239156 0.462157 -0.055936
v -1.258008 0.330194 -0.055936
v -0.027860 0.223673 -0.022125
v 0.421356 0.210639 -0.077436
v -1.030053 1.968428 -0.067542
v 1.632612 -0.017440 -0.055936
v 1.632612 -0.017440 -0.055936
v 1.632612 -0.017440 -0.055936
v 1.632612 -0.017440 -0.055936
v 1.632612 -0.017440 -0.055936
v 1.632612 -0.017440 -0.055936
v 2.059921 0.248503 -0.055936
v 2.028501 1.423602 -0.055936
v 2.201898 1.033997 -0.059034
v 0.427165 -0.017440 0.855335
v -0.019634 -0.011466 0.886681
v -1.276859 -0.017440 0.872525
v -1.235368 1.968514 0.867879
v -0.053762 1.962930 0.873303
v 1.286994 1.982559 0.872525
v 1.651464 1.744084 0.872525
v -0.227439 1.832059 0.872525
v -0.478797 1.712664 0.872525
v -0.792995 1.901183 0.872525
v -1.597624 1.887114 0.870235
v -1.798943 1.749032 0.874262
v -1.861267 1.580701 0.872525
v -2.188033 1.367047 0.872525
v -2.250873 0.814059 0.872525
v -2.043502 0.543848 0.872525
v -1.729305 0.543848 0.872525
v -1.239156 0.462157 0.872525
v -1.258008 0.330194 0.872525
v -0.027860 0.223673 0.906336
v 0.421356 0.210639 0.851026
v -1.030053 1.968428 0.860919
v 1.632612 -0.017440 0.872525
v 2.059921 0.248503 0.872525
v 2.028501 1.423602 0.872525
v 2.201898 1.033997 0.869428
vt 0.570026 0.865052
vt 0.015718 0.329345
vt 0.398050 0.110978
vt 0.856652 0.865053
vt 0.863318 0.799071
vt 0.856652 0.865053
vt 0.038101 0.720521
vt 0.195412 1.000000
vt 0.038101 0.720521
vt 0.444710 0.123546
vt 0.460708 0.000000
vt 0.460708 0.000000
vt 0.932641 0.692244
vt 0.863318 0.799071
vt 0.498036 1.000000
vt 0.516700 0.924750
vt 0.498036 1.000000
vt 0.398050 0.110978
vt 0.444710 0.123546
vt 0.945973 0.415749
vt 0.932641 0.692244
vt 0.092760 0.088984
vt 0.122089 0.000000
vt 0.122089 0.000000
vt 0.516700 0.924750
vt 0.392717 0.000000
vt 0.901979 0.280644
vt 0.945973 0.415749
vt 0.015718 0.329345
vt 0.015718 0.329345
vt 0.636683 0.959312
vt 0.570026 0.865052
vt 0.703652 0.996474
vt 0.636683 0.959312
vt 0.835321 0.280644
vt 0.901979 0.280644
vt 0.015718 0.329345
vt 0.092760 0.088984
vt 0.710006 1.000000
vt 0.703652 0.996474
vt 0.731336 0.239799
vt 0.835321 0.280644
vt 0.807325 0.953028
vt 0.710006 1.000000
vt 0.739335 0.000000
vt 0.739335 0.000000
vt 0.735336 0.173817
vt 0.731336 0.239799
vt 0.807325 0.953028
vt 0.195412 1.000000
vt 0.735336 0.173817
vt 0.122089 0.000000
vt 0.392717 0.000000
vt 0.122089 0.000000
vt 0.000000 0.000000
vn 0.0029 0.0161 -0.9999
vn -0.9378 0.3472 0.0000
vn 0.5475 0.8368 0.0000
vn 0.9994 0.0350 0.0000
vn -0.5472 0.8370 0.0000
vn -0.6018 0.7986 0.0000
vn -0.0290 -0.9996 0.0000
vn -0.9936 0.1129 0.0000
vn 0.5284 -0.8490 0.0000
vn -0.4291 0.9033 0.0000
vn -0.9997 -0.0255 0.0000
vn -0.7933 -0.6088 0.0000
vn 0.6476 0.7619 0.0000
vn 0.5145 0.8575 0.0000
vn 0.2729 0.9620 0.0000
vn 0.0000 -1.0000 0.0000
vn 0.9841 -0.1779 0.0000
vn 0.0004 1.0000 0.0000
vn -0.1644 -0.9864 0.0000
vn 0.9136 0.4066 0.0000
vn -0.2192 0.9757 0.0000
vn 0.0048 -1.0000 0.0000
vn -0.9899 0.1414 0.0000
vn -0.5656 0.8247 0.0000
vn -0.0146 0.9999 0.0000
vn -0.9985 0.0541 0.0000
vn -0.0036 0.0451 0.9990
vn 0.0000 -0.0000 -1.0000
vn 0.0010 0.0084 -1.0000
vn 0.0000 0.0000 1.0000
vn 0.0108 0.0837 -0.9964
vn 0.0273 -0.0015 -0.9996
vn 0.0271 -0.0039 -0.9996
vn -0.0010 0.0107 -0.9999
vn 0.0034 -0.0342 -0.9994
vn -0.0014 -0.0023 -1.0000
vn 0.0036 -0.0451 -0.9990
vn -0.0326 -0.2806 -0.9593
vn -0.0007 0.0068 -1.0000
vn 0.0143 -0.0185 -0.9997
vn -0.1237 -0.0600 -0.9905
vn 0.0249 -0.0152 -0.9996
vn 0.0133 -0.0063 -0.9999
vn 0.0136 -0.0219 -0.9997
vn -0.0273 0.0015 0.9996
vn -0.0108 -0.0837 0.9964
vn -0.0271 0.0039 0.9996
vn -0.0143 0.0185 0.9997
vn -0.0249 0.0152 0.9996
vn 0.1237 0.0600 0.9905
vn -0.0136 0.0219 0.9997
vn -0.0133 0.0063 0.9999
vn -0.0010 -0.0084 1.0000
vn -0.0029 -0.0161 0.9999
vn 0.0007 -0.0068 1.0000
vn 0.0014 0.0023 1.0000
vn 0.0326 0.2806 0.9593
vn -0.0034 0.0342 0.9994
vn 0.0010 -0.0107 0.9999
s off
f 9/1/1 31/2/1 21/3/1
f 12/4/2 44/5/2 43/6/2
f 7/7/3 37/8/3 38/9/3
f 20/10/4 33/11/4 2/12/4
f 14/13/5 44/5/5 13/14/5
f 5/15/6 39/16/6 36/17/6
f 20/10/7 52/18/7 51/19/7
f 14/13/8 46/20/8 45/21/8
f 29/22/9 54/23/9 28/24/9
f 9/1/10 39/16/10 8/25/10
f 1/26/11 52/18/11 21/3/11
f 16/27/12 46/20/12 15/28/12
f 7/7/13 56/29/13 30/30/13
f 10/31/14 40/32/14 9/1/14
f 10/31/15 53/33/15 41/34/15
f 17/35/16 47/36/16 16/27/16
f 29/22/17 57/37/17 55/38/17
f 4/39/18 53/33/18 22/40/18
f 18/41/19 48/42/19 17/35/19
f 30/30/20 57/37/20 31/2/20
f 11/43/21 35/44/21 4/39/21
f 2/12/22 34/45/22 3/46/22
f 19/47/23 49/48/23 18/41/23
f 12/4/24 42/49/24 11/43/24
f 5/15/25 37/8/25 6/50/25
f 3/46/26 50/51/26 19/47/26
f 26/52/16 32/53/16 1/26/16
f 41/34/27 35/44/27 42/49/27
f 7/7/28 30/30/28 9/1/28
f 30/30/29 31/2/29 9/1/29
f 28/24/30 27/54/30 26/52/30
f 20/10/31 2/12/31 3/46/31
f 3/46/32 19/47/32 20/10/32
f 19/47/33 18/41/33 20/10/33
f 17/35/28 16/27/28 15/28/28
f 18/41/28 17/35/28 15/28/28
f 15/28/28 14/13/28 18/41/28
f 14/13/28 13/14/28 9/1/28
f 18/41/28 14/13/28 9/1/28
f 13/14/34 12/4/34 9/1/34
f 12/4/35 11/43/35 10/31/35
f 9/1/36 12/4/36 10/31/36
f 11/43/37 4/39/37 10/31/37
f 4/39/38 22/40/38 10/31/38
f 8/25/39 5/15/39 6/50/39
f 9/1/28 8/25/28 7/7/28
f 8/25/28 6/50/28 7/7/28
f 29/22/30 28/24/30 26/52/30
f 26/52/40 1/26/40 21/3/40
f 21/3/41 20/10/41 9/1/41
f 20/10/42 18/41/42 9/1/42
f 31/2/43 29/22/43 21/3/43
f 29/22/44 26/52/44 21/3/44
f 12/4/2 13/14/2 44/5/2
f 7/7/3 6/50/3 37/8/3
f 20/10/4 51/19/4 33/11/4
f 14/13/5 45/21/5 44/5/5
f 5/15/6 8/25/6 39/16/6
f 20/10/7 21/3/7 52/18/7
f 14/13/8 15/28/8 46/20/8
f 29/22/9 55/38/9 54/23/9
f 9/1/10 40/32/10 39/16/10
f 1/26/11 32/53/11 52/18/11
f 16/27/12 47/36/12 46/20/12
f 7/7/13 38/9/13 56/29/13
f 10/31/14 41/34/14 40/32/14
f 10/31/15 22/40/15 53/33/15
f 17/35/16 48/42/16 47/36/16
f 29/22/17 31/2/17 57/37/17
f 4/39/18 35/44/18 53/33/18
f 18/41/19 49/48/19 48/42/19
f 30/30/20 56/29/20 57/37/20
f 11/43/21 42/49/21 35/44/21
f 2/12/22 33/11/22 34/45/22
f 19/47/23 50/51/23 49/48/23
f 12/4/24 43/6/24 42/49/24
f 5/15/25 36/17/25 37/8/25
f 3/46/26 34/45/26 50/51/26
f 26/52/16 54/55/16 32/53/16
f 50/51/45 34/45/45 51/19/45
f 34/45/46 33/11/46 51/19/46
f 49/48/47 50/51/47 51/19/47
f 52/18/48 32/53/48 54/23/48
f 49/48/49 51/19/49 40/32/49
f 51/19/50 52/18/50 40/32/50
f 46/20/30 47/36/30 48/42/30
f 48/42/30 49/48/30 46/20/30
f 52/18/51 54/23/51 55/38/51
f 55/38/52 57/37/52 52/18/52
f 57/37/53 56/29/53 40/32/53
f 52/18/54 57/37/54 40/32/54
f 56/29/30 38/9/30 40/32/30
f 38/9/30 37/8/30 39/16/30
f 40/32/30 38/9/30 39/16/30
f 37/8/55 36/17/55 39/16/55
f 40/32/56 41/34/56 43/6/56
f 41/34/57 53/33/57 35/44/57
f 49/48/30 40/32/30 45/21/30
f 45/21/30 46/20/30 49/48/30
f 42/49/58 43/6/58 41/34/58
f 43/6/59 44/5/59 40/32/59
f 44/5/30 45/21/30 40/32/30
