# Blender v3.0.0 OBJ File: 'lemming_model.blend'
# www.blender.org
o Plane_Plane.001
v 0.400000 0.000000 -0.100000
v 0.000000 0.000000 0.000000
v -1.300000 0.000000 -0.100000
v -1.200000 2.000000 -0.100000
v -0.100000 2.000000 -0.100000
v 1.300000 2.000000 -0.100000
v 1.700000 1.700000 -0.100000
v -0.200000 1.800000 -0.100000
v -0.500000 1.793504 -0.100000
v -0.800000 2.008677 -0.100000
v -1.600000 1.900000 -0.100000
v -1.800000 1.700000 -0.100000
v -1.900000 1.600000 -0.100000
v -2.200000 1.400000 -0.100000
v -2.303036 0.800000 -0.100000
v -2.000000 0.500000 -0.100000
v -1.700000 0.500000 -0.100000
v -1.417900 0.500000 -0.100000
v -1.300000 0.300000 -0.100000
v 0.000000 0.200000 0.000000
v 0.400000 0.200000 -0.100000
v -1.000000 2.000000 -0.100000
v 1.632612 -0.017440 -0.055936
v 1.632612 -0.017440 -0.055936
v 1.632612 -0.017440 -0.055936
v 1.600000 0.000000 -0.100000
v 1.600000 0.000000 -0.100000
v 1.600000 0.000000 -0.100000
v 2.100000 0.200000 -0.100000
v 2.000000 1.400000 -0.100000
v 2.200000 1.000000 -0.100000
v 0.400000 0.000000 0.900000
v 0.000000 0.000000 0.900000
v -1.300000 0.000000 0.900000
v -1.200000 2.000000 0.900000
v -0.100000 2.000000 0.900000
v 1.300000 2.000000 0.900000
v 1.700000 1.700000 0.900000
v -0.200000 1.800000 0.900000
v -0.500000 1.793504 0.900000
v -0.800000 2.008677 0.900000
v -1.600000 1.900000 0.900000
v -1.800000 1.700000 0.900000
v -1.900000 1.600000 0.900000
v -2.200000 1.400000 0.900000
v -2.303036 0.800000 0.900000
v -2.000000 0.500000 0.900000
v -1.700000 0.500000 0.900000
v -1.417900 0.500000 0.900000
v -1.300000 0.300000 0.900000
v 0.000000 0.200000 0.900000
v 0.400000 0.200000 0.900000
v -1.000000 2.000000 0.900000
v 1.600000 0.000000 0.900000
v 2.100000 0.200000 0.900000
v 2.000000 1.400000 0.900000
v 2.200000 1.000000 0.900000
vt 0.835321 0.280644
vt 0.901979 0.280644
vt 0.945973 0.415749
vt 0.856652 0.865053
vt 0.863318 0.799071
vt 0.856652 0.865053
vt 0.195412 1.000000
vt 0.038101 0.720521
vt 0.038101 0.720521
vt 0.444710 0.123546
vt 0.460708 0.000000
vt 0.460708 0.000000
vt 0.932641 0.692244
vt 0.863318 0.799071
vt 0.516700 0.924750
vt 0.498036 1.000000
vt 0.498036 1.000000
vt 0.398050 0.110978
vt 0.444710 0.123546
vt 0.932641 0.692244
vt 0.092760 0.088984
vt 0.122089 0.000000
vt 0.122089 0.000000
vt 0.570026 0.865052
vt 0.516700 0.924750
vt 0.392717 0.000000
vt 0.398050 0.110978
vt 0.945973 0.415749
vt 0.015718 0.329345
vt 0.015718 0.329345
vt 0.636683 0.959312
vt 0.570026 0.865052
vt 0.703652 0.996474
vt 0.636683 0.959312
vt 0.901979 0.280644
vt 0.015718 0.329345
vt 0.092760 0.088984
vt 0.710006 1.000000
vt 0.703652 0.996474
vt 0.731336 0.239799
vt 0.835321 0.280644
vt 0.015718 0.329345
vt 0.807325 0.953028
vt 0.710006 1.000000
vt 0.739335 0.000000
vt 0.739335 0.000000
vt 0.735336 0.173817
vt 0.731336 0.239799
vt 0.807325 0.953028
vt 0.195412 1.000000
vt 0.735336 0.173817
vt 0.000000 0.000000
vt 0.122089 0.000000
vt 0.122089 0.000000
vt 0.392717 0.000000
vn 0.0000 0.0000 -1.0000
vn -0.7071 0.7071 0.0000
vn 0.6000 0.8000 0.0000
vn 1.0000 0.0000 0.0000
vn -0.5547 0.8321 0.0000
vn -0.8944 0.4472 0.0000
vn 0.0000 -1.0000 0.0000
vn -0.9856 0.1692 0.0000
vn 0.3714 -0.9285 0.0000
vn -0.0216 0.9998 0.0000
vn -1.0000 0.0000 0.0000
vn -0.7035 -0.7107 0.0000
vn 0.7071 0.7071 0.0000
vn 0.5828 0.8126 0.0000
vn -0.0433 0.9991 0.0000
vn 0.9923 -0.1240 0.0000
vn 0.0000 1.0000 0.0000
vn 0.8944 0.4472 0.0000
vn -0.2425 0.9701 0.0000
vn -0.8615 -0.5078 0.0000
vn 0.0000 0.0000 1.0000
vn 0.0767 0.0000 -0.9971
vn -0.2415 -0.0906 -0.9662
vn 0.0802 0.0473 -0.9957
vn 0.0587 -0.0550 -0.9968
s off
f 17/1/1 16/2/1 15/3/1
f 12/4/2 44/5/2 43/6/2
f 6/7/3 38/8/3 7/9/3
f 20/10/4 33/11/4 2/12/4
f 14/13/5 44/5/5 13/14/5
f 8/15/6 36/16/6 5/17/6
f 20/10/7 52/18/7 51/19/7
f 15/3/8 45/20/8 14/13/8
f 29/21/9 54/22/9 28/23/9
f 9/24/10 39/25/10 8/15/10
f 1/26/11 52/18/11 21/27/11
f 16/2/12 46/28/12 15/3/12
f 7/9/13 56/29/13 30/30/13
f 10/31/14 40/32/14 9/24/14
f 22/33/15 41/34/15 10/31/15
f 17/1/7 47/35/7 16/2/7
f 29/21/16 57/36/16 55/37/16
f 4/38/17 53/39/17 22/33/17
f 18/40/7 48/41/7 17/1/7
f 31/42/18 56/29/18 57/36/18
f 11/43/19 35/44/19 4/38/19
f 2/12/7 34/45/7 3/46/7
f 18/40/20 50/47/20 49/48/20
f 12/4/2 42/49/2 11/43/2
f 5/17/17 37/50/17 6/7/17
f 3/46/11 50/47/11 19/51/11
f 54/52/7 1/26/7 26/53/7
f 45/20/21 49/48/21 40/32/21
f 7/9/1 30/30/1 8/15/1
f 30/30/1 31/42/1 8/15/1
f 28/23/21 27/54/21 26/53/21
f 20/10/22 2/12/22 3/46/22
f 20/10/22 3/46/22 19/51/22
f 21/27/23 20/10/23 8/15/23
f 20/10/24 19/51/24 18/40/24
f 20/10/25 18/40/25 8/15/25
f 28/23/21 26/53/21 1/26/21
f 31/42/1 29/21/1 21/27/1
f 29/21/1 28/23/1 21/27/1
f 6/7/1 7/9/1 8/15/1
f 8/15/1 5/17/1 6/7/1
f 22/33/1 10/31/1 9/24/1
f 4/38/1 22/33/1 9/24/1
f 9/24/1 8/15/1 18/40/1
f 8/15/1 31/42/1 21/27/1
f 28/23/1 1/26/1 21/27/1
f 11/43/1 4/38/1 9/24/1
f 12/4/1 11/43/1 9/24/1
f 15/3/1 14/13/1 18/40/1
f 14/13/1 13/14/1 9/24/1
f 18/40/1 14/13/1 9/24/1
f 13/14/1 12/4/1 9/24/1
f 18/40/1 17/1/1 15/3/1
f 12/4/2 13/14/2 44/5/2
f 6/7/3 37/50/3 38/8/3
f 20/10/4 51/19/4 33/11/4
f 14/13/5 45/20/5 44/5/5
f 8/15/6 39/25/6 36/16/6
f 20/10/7 21/27/7 52/18/7
f 15/3/8 46/28/8 45/20/8
f 29/21/9 55/37/9 54/22/9
f 9/24/10 40/32/10 39/25/10
f 1/26/11 32/55/11 52/18/11
f 16/2/12 47/35/12 46/28/12
f 7/9/13 38/8/13 56/29/13
f 10/31/14 41/34/14 40/32/14
f 22/33/15 53/39/15 41/34/15
f 17/1/7 48/41/7 47/35/7
f 29/21/16 31/42/16 57/36/16
f 4/38/17 35/44/17 53/39/17
f 18/40/7 49/48/7 48/41/7
f 31/42/18 30/30/18 56/29/18
f 11/43/19 42/49/19 35/44/19
f 2/12/7 33/11/7 34/45/7
f 18/40/20 19/51/20 50/47/20
f 12/4/2 43/6/2 42/49/2
f 5/17/17 36/16/17 37/50/17
f 3/46/11 34/45/11 50/47/11
f 54/52/7 32/55/7 1/26/7
f 50/47/21 34/45/21 51/19/21
f 34/45/21 33/11/21 51/19/21
f 47/35/21 48/41/21 46/28/21
f 48/41/21 49/48/21 46/28/21
f 49/48/21 50/47/21 51/19/21
f 52/18/21 32/55/21 54/22/21
f 49/48/21 51/19/21 39/25/21
f 51/19/21 52/18/21 39/25/21
f 44/5/21 45/20/21 40/32/21
f 45/20/21 46/28/21 49/48/21
f 42/49/21 43/6/21 40/32/21
f 43/6/21 44/5/21 40/32/21
f 53/39/21 35/44/21 40/32/21
f 35/44/21 42/49/21 40/32/21
f 40/32/21 41/34/21 53/39/21
f 37/50/21 36/16/21 39/25/21
f 38/8/21 37/50/21 39/25/21
f 38/8/21 39/25/21 56/29/21
f 39/25/21 40/32/21 49/48/21
f 56/29/21 39/25/21 57/36/21
f 57/36/21 39/25/21 52/18/21
f 54/22/21 55/37/21 52/18/21
f 55/37/21 57/36/21 52/18/21
